<svg xmlns="http://www.w3.org/2000/svg" viewBox="0 0 32 32" fill="none">
  <rect width="32" height="32" rx="7" fill="#111827"/>
  <g stroke="#3B82F6" stroke-width="2" stroke-linecap="round">
    <path d="M16 6v20"/>
    <path d="M7 11l18 10"/>
    <path d="M25 11L7 21"/>
    <path d="M16 6l-3 3M16 6l3 3"/>
    <path d="M16 26l-3-3M16 26l3-3"/>
    <path d="M7 11l4 .5M7 11l1.5-3.8"/>
    <path d="M25 21l-4-.5M25 21l-1.5 3.8"/>
    <path d="M25 11l-4 .5M25 11l-1.5-3.8"/>
    <path d="M7 21l4-.5M7 21l1.5 3.8"/>
  </g>
</svg>
